<svg width="24" height="25" viewBox="0 0 24 25" fill="none" xmlns="http://www.w3.org/2000/svg">
<path opacity="0.1" fill-rule="evenodd" clip-rule="evenodd" d="M0 12.2593C0 5.63186 5.37258 0.259277 12 0.259277C18.6274 0.259277 24 5.63186 24 12.2593C24 18.8867 18.6274 24.2593 12 24.2593C5.37258 24.2593 0 18.8867 0 12.2593Z" fill="#949494"/>
<path fill-rule="evenodd" clip-rule="evenodd" d="M12.0006 5.85938C10.2624 5.85938 10.0443 5.86698 9.36161 5.89804C8.68027 5.92924 8.2152 6.03711 7.80827 6.19538C7.38733 6.35885 7.03026 6.57752 6.67452 6.93339C6.31852 7.28912 6.09985 7.64619 5.93585 8.067C5.77718 8.47407 5.66918 8.93927 5.63851 9.62035C5.60798 10.303 5.59998 10.5213 5.59998 12.2594C5.59998 13.9976 5.60771 14.2151 5.63864 14.8977C5.66998 15.5791 5.77784 16.0441 5.93598 16.4511C6.09958 16.872 6.31825 17.2291 6.67412 17.5848C7.02972 17.9408 7.38679 18.16 7.80747 18.3235C8.21467 18.4818 8.67987 18.5896 9.36108 18.6208C10.0438 18.6519 10.2618 18.6595 11.9998 18.6595C13.7381 18.6595 13.9555 18.6519 14.6382 18.6208C15.3195 18.5896 15.7851 18.4818 16.1924 18.3235C16.6132 18.16 16.9697 17.9408 17.3253 17.5848C17.6813 17.2291 17.9 16.872 18.064 16.4512C18.2213 16.0441 18.3293 15.5789 18.3613 14.8979C18.392 14.2152 18.4 13.9976 18.4 12.2594C18.4 10.5213 18.392 10.3032 18.3613 9.62048C18.3293 8.93914 18.2213 8.47407 18.064 8.06713C17.9 7.64619 17.6813 7.28912 17.3253 6.93339C16.9693 6.57738 16.6133 6.35871 16.192 6.19538C15.7839 6.03711 15.3186 5.92924 14.6373 5.89804C13.9546 5.86698 13.7373 5.85938 11.9986 5.85938H12.0006ZM11.4264 7.0127C11.5968 7.01244 11.7869 7.0127 12.0005 7.0127C13.7094 7.0127 13.9119 7.01884 14.5867 7.0495C15.2107 7.07804 15.5494 7.1823 15.775 7.2699C16.0737 7.38591 16.2866 7.52457 16.5105 7.74858C16.7345 7.97258 16.8731 8.18591 16.9894 8.48458C17.077 8.70992 17.1814 9.04859 17.2098 9.6726C17.2405 10.3473 17.2471 10.5499 17.2471 12.258C17.2471 13.966 17.2405 14.1686 17.2098 14.8433C17.1813 15.4673 17.077 15.806 16.9894 16.0313C16.8734 16.33 16.7345 16.5427 16.5105 16.7665C16.2865 16.9905 16.0738 17.1292 15.775 17.2452C15.5497 17.3332 15.2107 17.4372 14.5867 17.4657C13.912 17.4964 13.7094 17.5031 12.0005 17.5031C10.2916 17.5031 10.0891 17.4964 9.41439 17.4657C8.79038 17.4369 8.45171 17.3327 8.22598 17.2451C7.92731 17.1291 7.71397 16.9904 7.48997 16.7664C7.26597 16.5424 7.1273 16.3296 7.01103 16.0308C6.92343 15.8055 6.81903 15.4668 6.79063 14.8428C6.75996 14.1681 6.75383 13.9654 6.75383 12.2564C6.75383 10.5473 6.75996 10.3457 6.79063 9.671C6.81916 9.04699 6.92343 8.70832 7.01103 8.48272C7.12703 8.18405 7.26597 7.97071 7.48997 7.74671C7.71397 7.52271 7.92731 7.38404 8.22598 7.26777C8.45158 7.17977 8.79038 7.07577 9.41439 7.0471C10.0048 7.02044 10.2336 7.01244 11.4264 7.0111V7.0127ZM15.4169 8.07538C14.9928 8.07538 14.6488 8.41899 14.6488 8.84312C14.6488 9.26713 14.9928 9.61113 15.4169 9.61113C15.8409 9.61113 16.1849 9.26713 16.1849 8.84312C16.1849 8.41912 15.8409 8.07538 15.4169 8.07538ZM12.0006 8.97272C10.1855 8.97272 8.71389 10.4443 8.71389 12.2594C8.71389 14.0745 10.1855 15.5455 12.0006 15.5455C13.8157 15.5455 15.2868 14.0745 15.2868 12.2594C15.2868 10.4443 13.8157 8.97272 12.0006 8.97272ZM12.0006 10.1261C13.1787 10.1261 14.1339 11.0811 14.1339 12.2594C14.1339 13.4376 13.1787 14.3928 12.0006 14.3928C10.8223 14.3928 9.86721 13.4376 9.86721 12.2594C9.86721 11.0811 10.8223 10.1261 12.0006 10.1261Z" fill="#949494"/>
</svg>
