<svg width="24" height="25" viewBox="0 0 24 25" fill="none" xmlns="http://www.w3.org/2000/svg">
<path opacity="0.1" fill-rule="evenodd" clip-rule="evenodd" d="M0 12.2593C0 5.63186 5.37258 0.259277 12 0.259277C18.6274 0.259277 24 5.63186 24 12.2593C24 18.8867 18.6274 24.2593 12 24.2593C5.37258 24.2593 0 18.8867 0 12.2593Z" fill="#949494"/>
<path fill-rule="evenodd" clip-rule="evenodd" d="M18.4 12.2505C18.4 12.6833 18.3559 13.1155 18.2694 13.5369C18.185 13.9482 18.06 14.352 17.8962 14.738C17.7362 15.1172 17.5378 15.4826 17.3059 15.8233C17.0774 16.162 16.8143 16.4796 16.5252 16.7692C16.2355 17.0576 15.9167 17.32 15.5783 17.5494C15.2364 17.7797 14.8705 17.9778 14.4911 18.1386C14.1045 18.3015 13.6997 18.4263 13.2888 18.5105C12.8669 18.5973 12.4331 18.6416 11.9997 18.6416C11.5659 18.6416 11.1321 18.5973 10.7109 18.5105C10.2993 18.4263 9.89459 18.3015 9.50832 18.1386C9.12893 17.9778 8.76264 17.7797 8.42076 17.5494C8.0823 17.32 7.76354 17.0576 7.47446 16.7692C7.18508 16.4796 6.92193 16.162 6.69317 15.8233C6.46253 15.4826 6.26376 15.1171 6.10313 14.738C5.93936 14.352 5.81405 13.9481 5.72936 13.5369C5.64374 13.1155 5.59998 12.6833 5.59998 12.2505C5.59998 11.8174 5.64371 11.3842 5.72939 10.9638C5.81408 10.5525 5.93938 10.1481 6.10316 9.7627C6.26378 9.38324 6.46256 9.0175 6.69319 8.67671C6.92195 8.33782 7.18511 8.02074 7.47449 7.73083C7.76357 7.44247 8.08233 7.18067 8.42078 6.95162C8.76267 6.72036 9.12895 6.52222 9.50834 6.36118C9.89462 6.19794 10.2993 6.07282 10.7109 5.9892C11.1322 5.90307 11.5659 5.85938 11.9997 5.85938C12.4332 5.85938 12.8669 5.90307 13.2888 5.9892C13.6998 6.07285 14.1045 6.19797 14.4911 6.36118C14.8705 6.5222 15.2364 6.72036 15.5783 6.95162C15.9168 7.18067 16.2356 7.44247 16.5252 7.73083C16.8143 8.02074 17.0775 8.33782 17.3059 8.67671C17.5378 9.0175 17.7362 9.38326 17.8962 9.7627C18.06 10.1481 18.185 10.5525 18.2694 10.9638C18.3559 11.3842 18.4 11.8174 18.4 12.2505ZM9.66766 7.31391C8.14351 8.03261 7.00595 9.43503 6.65124 11.1252C6.79533 11.1264 9.07295 11.1551 11.6971 10.4589C10.7512 8.78061 9.74049 7.41099 9.66766 7.31391ZM12.15 11.2993C9.33577 12.1406 6.6353 12.0801 6.53844 12.0764C6.53686 12.135 6.53405 12.1918 6.53405 12.2505C6.53405 13.6526 7.06376 14.9308 7.93444 15.8973C7.93256 15.8945 9.42828 13.2447 12.3778 12.2923C12.449 12.2686 12.5216 12.2474 12.5934 12.2268C12.4563 11.9166 12.3065 11.6058 12.15 11.2993ZM15.6092 8.15431C14.647 7.30704 13.3835 6.7931 11.9997 6.7931C11.5556 6.7931 11.1246 6.84678 10.7118 6.94601C10.7937 7.05587 11.8203 8.41584 12.755 10.1297C14.8173 9.35764 15.5958 8.17428 15.6092 8.15431ZM12.966 13.1311C12.9538 13.1352 12.9416 13.1386 12.9297 13.143C9.70494 14.2656 8.65184 16.5279 8.64045 16.5526C9.56833 17.2732 10.7321 17.7079 11.9997 17.7079C12.7566 17.7079 13.4776 17.554 14.1335 17.2754C14.0526 16.7985 13.7351 15.1271 12.966 13.1311ZM15.0539 16.7767C16.2811 15.9497 17.1527 14.6366 17.3959 13.1155C17.2834 13.0793 15.7542 12.5959 13.9901 12.8784C14.707 14.8456 14.9983 16.4478 15.0539 16.7767ZM13.1757 10.9429C13.3026 11.2032 13.4254 11.4681 13.5388 11.7343C13.5792 11.8298 13.6185 11.9235 13.657 12.0171C15.5346 11.7811 17.3843 12.1781 17.4634 12.1943C17.4509 10.9005 16.9874 9.71306 16.2206 8.78344C16.2102 8.79807 15.3336 10.0629 13.1757 10.9429Z" fill="#949494"/>
</svg>
