<svg width="24" height="25" viewBox="0 0 24 25" fill="none" xmlns="http://www.w3.org/2000/svg">
<path opacity="0.1" fill-rule="evenodd" clip-rule="evenodd" d="M0 12.2593C0 5.63186 5.37258 0.259277 12 0.259277C18.6274 0.259277 24 5.63186 24 12.2593C24 18.8867 18.6274 24.2593 12 24.2593C5.37258 24.2593 0 18.8867 0 12.2593Z" fill="#949494"/>
<path fill-rule="evenodd" clip-rule="evenodd" d="M11.6406 10.0132L11.6658 10.4285L11.2461 10.3776C9.71843 10.1827 8.38383 9.52173 7.25067 8.41163L6.69668 7.86082L6.55399 8.26757C6.25181 9.17429 6.44487 10.1319 7.0744 10.7759C7.41015 11.1318 7.33461 11.1826 6.75544 10.9708C6.55399 10.903 6.37772 10.8522 6.36093 10.8776C6.30218 10.9369 6.50363 11.708 6.66311 12.0131C6.88134 12.4368 7.32621 12.852 7.81305 13.0978L8.22434 13.2927L7.73751 13.3011C7.26746 13.3011 7.25067 13.3096 7.30103 13.4876C7.46891 14.0384 8.13201 14.6231 8.87066 14.8773L9.39108 15.0553L8.93781 15.3264C8.26631 15.7162 7.4773 15.9366 6.68829 15.9535C6.31057 15.962 6 15.9959 6 16.0213C6 16.106 7.02404 16.5806 7.61999 16.767C9.40786 17.3178 11.5315 17.0806 13.1263 16.1399C14.2595 15.4705 15.3926 14.1401 15.9214 12.852C16.2068 12.1656 16.4922 10.9115 16.4922 10.3098C16.4922 9.92001 16.5174 9.86916 16.9874 9.40309C17.2644 9.13192 17.5246 8.83533 17.575 8.75059C17.6589 8.58959 17.6505 8.58959 17.2224 8.73365C16.509 8.98787 16.4083 8.95397 16.7608 8.57264C17.021 8.30147 17.3316 7.80998 17.3316 7.66592C17.3316 7.6405 17.2057 7.68287 17.063 7.75913C16.9119 7.84387 16.5761 7.97098 16.3243 8.04725L15.8711 8.19131L15.4598 7.91167C15.2331 7.75913 14.9142 7.58965 14.7463 7.53881C14.3182 7.42017 13.6635 7.43712 13.2774 7.5727C12.2282 7.95404 11.5651 8.93702 11.6406 10.0132Z" fill="#949494"/>
</svg>
