<svg width="24" height="25" viewBox="0 0 24 25" fill="none" xmlns="http://www.w3.org/2000/svg">
<path opacity="0.1" fill-rule="evenodd" clip-rule="evenodd" d="M0 12.2593C0 5.63186 5.37258 0.259277 12 0.259277C18.6274 0.259277 24 5.63186 24 12.2593C24 18.8867 18.6274 24.2593 12 24.2593C5.37258 24.2593 0 18.8867 0 12.2593Z" fill="#949494"/>
<path fill-rule="evenodd" clip-rule="evenodd" d="M17.0008 8.13404C17.5515 8.28517 17.9853 8.73048 18.1325 9.29598C18.4 10.3209 18.4 12.4594 18.4 12.4594C18.4 12.4594 18.4 14.5978 18.1325 15.6228C17.9853 16.1883 17.5515 16.6336 17.0008 16.7848C16.0027 17.0594 12 17.0594 12 17.0594C12 17.0594 7.99728 17.0594 6.9991 16.7848C6.44834 16.6336 6.01459 16.1883 5.86739 15.6228C5.59998 14.5978 5.59998 12.4594 5.59998 12.4594C5.59998 12.4594 5.59998 10.3209 5.86739 9.29598C6.01459 8.73048 6.44834 8.28517 6.9991 8.13404C7.99728 7.85938 12 7.85938 12 7.85938C12 7.85938 16.0027 7.85938 17.0008 8.13404ZM10.8 10.6593V14.6593L14 12.6594L10.8 10.6593Z" fill="#949494"/>
</svg>
