<svg width="37" height="42" viewBox="0 0 37 42" fill="none"
    xmlns="http://www.w3.org/2000/svg">
    <path d="M20.344 16.7351L31.1943 9.05861L21.8119 3.59976M15.3295 25.4351L5.77649 20.1469V27.141L1 30.5528V11.4469L35.6296 30.5528V11.788L30.5119 15.3704V22.5351L6.28826 8.71743L14.9883 3.59976M15.3295 25.4351L30.1707 33.6234C30.1707 33.6234 25.291 36.7205 21.6413 38.7411M15.3295 25.4351L5.60591 33.1116C5.60591 33.1116 11.4401 36.6423 15.1589 38.8195" stroke="#0AC05E" stroke-linecap="round"/>
    <path d="M10.2116 29.5299C10.621 30.0758 14.8744 32.4868 16.8646 33.7946M24.7117 30.724L19.9352 33.7946" stroke="#0AC05E"/>
    <path d="M16.8651 8.20544L11.2357 11.4466M20.2769 8.03485L26.5887 12.2996" stroke="#0AC05E"/>
    <path d="M21.9939 4.9644C21.9939 6.94938 20.3848 8.55853 18.3998 8.55853C16.4148 8.55853 14.8057 6.94938 14.8057 4.9644C14.8057 2.97942 16.4148 1.37027 18.3998 1.37027C20.3848 1.37027 21.9939 2.97942 21.9939 4.9644Z" stroke="#0AC05E"/>
    <path d="M21.9939 37.0356C21.9939 39.0206 20.3848 40.6297 18.3998 40.6297C16.4148 40.6297 14.8057 39.0206 14.8057 37.0356C14.8057 35.0506 16.4148 33.4415 18.3998 33.4415C20.3848 33.4415 21.9939 35.0506 21.9939 37.0356Z" stroke="#0AC05E"/>
</svg>
