<svg width="24" height="25" viewBox="0 0 24 25" fill="none" xmlns="http://www.w3.org/2000/svg">
<path d="M19 10.7647C19 13.6109 15.4774 18.3245 13.43 20.8238C12.6809 21.7382 11.3191 21.7382 10.57 20.8238C8.52261 18.3245 5 13.6109 5 10.7647C5 6.75252 8.13401 3.5 12 3.5C15.866 3.5 19 6.75252 19 10.7647Z" stroke="#0AC05E" stroke-width="1.25" stroke-linecap="round"/>
<path d="M14.6004 10.5C14.6004 11.9359 13.4363 13.1 12.0004 13.1C10.5645 13.1 9.40039 11.9359 9.40039 10.5C9.40039 9.06396 10.5645 7.8999 12.0004 7.8999C13.4363 7.8999 14.6004 9.06396 14.6004 10.5Z" stroke="#0AC05E" stroke-width="1.25" stroke-linecap="round"/>
</svg>
