<svg width="56" height="56" viewBox="0 0 56 56" fill="none" xmlns="http://www.w3.org/2000/svg">
<rect x="0.5" y="0.5" width="55" height="55" rx="27.5" stroke="#D1D5DB"/>
<path d="M24.7071 22.7071C25.0976 22.3166 25.0976 21.6834 24.7071 21.2929C24.3166 20.9024 23.6834 20.9024 23.2929 21.2929L17.2929 27.2929C16.9024 27.6834 16.9024 28.3166 17.2929 28.7071L23.2929 34.7071C23.6834 35.0976 24.3166 35.0976 24.7071 34.7071C25.0976 34.3166 25.0976 33.6834 24.7071 33.2929L20.4142 29H37.9892C38.5476 29 39.0002 28.5523 39.0002 28C39.0002 27.4477 38.5476 27 37.9892 27H20.4142L24.7071 22.7071Z" fill="#111827"/>
</svg>
